<svg xmlns="http://www.w3.org/2000/svg" viewBox="0 0 100 100">
<defs><clipPath id="cb"><circle cx="50" cy="54" r="40"/></clipPath></defs>
<rect x="48" y="0" width="4" height="12" fill="#26092f"/>
<circle cx="54" cy="58" r="42" fill="#ff1d8e"/>
<circle cx="47" cy="52" r="42" fill="#38e1ff"/>
<circle cx="50" cy="54" r="42" fill="#26092f"/>
<g clip-path="url(#cb)"><circle cx="50" cy="54" r="40" fill="#5418d6"/><rect x="8" y="12" width="8" height="8" fill="#ff1d8e" opacity="0.55"/><rect x="17" y="12" width="8" height="8" fill="#7b3cff" opacity="0.55"/><rect x="26" y="12" width="8" height="8" fill="#b98cff" opacity="0.9"/><rect x="35" y="12" width="8" height="8" fill="#d9c8ff" opacity="0.9"/><rect x="44" y="12" width="8" height="8" fill="#b98cff" opacity="0.9"/><rect x="53" y="12" width="8" height="8" fill="#4d1bb8" opacity="0.9"/><rect x="62" y="12" width="8" height="8" fill="#38e1ff" opacity="0.9"/><rect x="71" y="12" width="8" height="8" fill="#4d1bb8" opacity="0.9"/><rect x="80" y="12" width="8" height="8" fill="#38e1ff" opacity="0.9"/><rect x="89" y="12" width="8" height="8" fill="#ff1d8e" opacity="0.55"/><rect x="8" y="21" width="8" height="8" fill="#4d1bb8" opacity="0.9"/><rect x="17" y="21" width="8" height="8" fill="#38e1ff" opacity="0.9"/><rect x="26" y="21" width="8" height="8" fill="#4d1bb8" opacity="0.9"/><rect x="35" y="21" width="8" height="8" fill="#38e1ff" opacity="0.9"/><rect x="44" y="21" width="8" height="8" fill="#ff1d8e" opacity="0.55"/><rect x="53" y="21" width="8" height="8" fill="#7b3cff" opacity="0.55"/><rect x="62" y="21" width="8" height="8" fill="#ff1d8e" opacity="0.55"/><rect x="71" y="21" width="8" height="8" fill="#7b3cff" opacity="0.55"/><rect x="80" y="21" width="8" height="8" fill="#b98cff" opacity="0.9"/><rect x="89" y="21" width="8" height="8" fill="#d9c8ff" opacity="0.9"/><rect x="8" y="30" width="8" height="8" fill="#7b3cff" opacity="0.55"/><rect x="17" y="30" width="8" height="8" fill="#ff1d8e" opacity="0.55"/><rect x="26" y="30" width="8" height="8" fill="#7b3cff" opacity="0.55"/><rect x="35" y="30" width="8" height="8" fill="#b98cff" opacity="0.9"/><rect x="44" y="30" width="8" height="8" fill="#d9c8ff" opacity="0.9"/><rect x="53" y="30" width="8" height="8" fill="#b98cff" opacity="0.9"/><rect x="62" y="30" width="8" height="8" fill="#4d1bb8" opacity="0.9"/><rect x="71" y="30" width="8" height="8" fill="#38e1ff" opacity="0.9"/><rect x="80" y="30" width="8" height="8" fill="#4d1bb8" opacity="0.9"/><rect x="89" y="30" width="8" height="8" fill="#38e1ff" opacity="0.9"/><rect x="8" y="39" width="8" height="8" fill="#b98cff" opacity="0.9"/><rect x="17" y="39" width="8" height="8" fill="#4d1bb8" opacity="0.9"/><rect x="26" y="39" width="8" height="8" fill="#38e1ff" opacity="0.9"/><rect x="35" y="39" width="8" height="8" fill="#4d1bb8" opacity="0.9"/><rect x="44" y="39" width="8" height="8" fill="#38e1ff" opacity="0.9"/><rect x="53" y="39" width="8" height="8" fill="#ff1d8e" opacity="0.55"/><rect x="62" y="39" width="8" height="8" fill="#7b3cff" opacity="0.55"/><rect x="71" y="39" width="8" height="8" fill="#ff1d8e" opacity="0.55"/><rect x="80" y="39" width="8" height="8" fill="#7b3cff" opacity="0.55"/><rect x="89" y="39" width="8" height="8" fill="#b98cff" opacity="0.9"/><rect x="8" y="48" width="8" height="8" fill="#ff1d8e" opacity="0.55"/><rect x="17" y="48" width="8" height="8" fill="#7b3cff" opacity="0.55"/><rect x="26" y="48" width="8" height="8" fill="#ff1d8e" opacity="0.55"/><rect x="35" y="48" width="8" height="8" fill="#7b3cff" opacity="0.55"/><rect x="44" y="48" width="8" height="8" fill="#b98cff" opacity="0.9"/><rect x="53" y="48" width="8" height="8" fill="#d9c8ff" opacity="0.9"/><rect x="62" y="48" width="8" height="8" fill="#b98cff" opacity="0.9"/><rect x="71" y="48" width="8" height="8" fill="#4d1bb8" opacity="0.9"/><rect x="80" y="48" width="8" height="8" fill="#38e1ff" opacity="0.9"/><rect x="89" y="48" width="8" height="8" fill="#4d1bb8" opacity="0.9"/><rect x="8" y="57" width="8" height="8" fill="#d9c8ff" opacity="0.9"/><rect x="17" y="57" width="8" height="8" fill="#b98cff" opacity="0.9"/><rect x="26" y="57" width="8" height="8" fill="#4d1bb8" opacity="0.9"/><rect x="35" y="57" width="8" height="8" fill="#38e1ff" opacity="0.9"/><rect x="44" y="57" width="8" height="8" fill="#4d1bb8" opacity="0.9"/><rect x="53" y="57" width="8" height="8" fill="#38e1ff" opacity="0.9"/><rect x="62" y="57" width="8" height="8" fill="#ff1d8e" opacity="0.55"/><rect x="71" y="57" width="8" height="8" fill="#7b3cff" opacity="0.55"/><rect x="80" y="57" width="8" height="8" fill="#ff1d8e" opacity="0.55"/><rect x="89" y="57" width="8" height="8" fill="#7b3cff" opacity="0.55"/><rect x="8" y="66" width="8" height="8" fill="#38e1ff" opacity="0.9"/><rect x="17" y="66" width="8" height="8" fill="#ff1d8e" opacity="0.55"/><rect x="26" y="66" width="8" height="8" fill="#7b3cff" opacity="0.55"/><rect x="35" y="66" width="8" height="8" fill="#ff1d8e" opacity="0.55"/><rect x="44" y="66" width="8" height="8" fill="#7b3cff" opacity="0.55"/><rect x="53" y="66" width="8" height="8" fill="#b98cff" opacity="0.9"/><rect x="62" y="66" width="8" height="8" fill="#d9c8ff" opacity="0.9"/><rect x="71" y="66" width="8" height="8" fill="#b98cff" opacity="0.9"/><rect x="80" y="66" width="8" height="8" fill="#4d1bb8" opacity="0.9"/><rect x="89" y="66" width="8" height="8" fill="#38e1ff" opacity="0.9"/><rect x="8" y="75" width="8" height="8" fill="#b98cff" opacity="0.9"/><rect x="17" y="75" width="8" height="8" fill="#d9c8ff" opacity="0.9"/><rect x="26" y="75" width="8" height="8" fill="#b98cff" opacity="0.9"/><rect x="35" y="75" width="8" height="8" fill="#4d1bb8" opacity="0.9"/><rect x="44" y="75" width="8" height="8" fill="#38e1ff" opacity="0.9"/><rect x="53" y="75" width="8" height="8" fill="#4d1bb8" opacity="0.9"/><rect x="62" y="75" width="8" height="8" fill="#38e1ff" opacity="0.9"/><rect x="71" y="75" width="8" height="8" fill="#ff1d8e" opacity="0.55"/><rect x="80" y="75" width="8" height="8" fill="#7b3cff" opacity="0.55"/><rect x="89" y="75" width="8" height="8" fill="#ff1d8e" opacity="0.55"/><rect x="8" y="84" width="8" height="8" fill="#4d1bb8" opacity="0.9"/><rect x="17" y="84" width="8" height="8" fill="#38e1ff" opacity="0.9"/><rect x="26" y="84" width="8" height="8" fill="#ff1d8e" opacity="0.55"/><rect x="35" y="84" width="8" height="8" fill="#7b3cff" opacity="0.55"/><rect x="44" y="84" width="8" height="8" fill="#ff1d8e" opacity="0.55"/><rect x="53" y="84" width="8" height="8" fill="#7b3cff" opacity="0.55"/><rect x="62" y="84" width="8" height="8" fill="#b98cff" opacity="0.9"/><rect x="71" y="84" width="8" height="8" fill="#d9c8ff" opacity="0.9"/><rect x="80" y="84" width="8" height="8" fill="#b98cff" opacity="0.9"/><rect x="89" y="84" width="8" height="8" fill="#4d1bb8" opacity="0.9"/><rect x="8" y="93" width="8" height="8" fill="#7b3cff" opacity="0.55"/><rect x="17" y="93" width="8" height="8" fill="#b98cff" opacity="0.9"/><rect x="26" y="93" width="8" height="8" fill="#d9c8ff" opacity="0.9"/><rect x="35" y="93" width="8" height="8" fill="#b98cff" opacity="0.9"/><rect x="44" y="93" width="8" height="8" fill="#4d1bb8" opacity="0.9"/><rect x="53" y="93" width="8" height="8" fill="#38e1ff" opacity="0.9"/><rect x="62" y="93" width="8" height="8" fill="#4d1bb8" opacity="0.9"/><rect x="71" y="93" width="8" height="8" fill="#38e1ff" opacity="0.9"/><rect x="80" y="93" width="8" height="8" fill="#ff1d8e" opacity="0.55"/><rect x="89" y="93" width="8" height="8" fill="#7b3cff" opacity="0.55"/><path d="M14 30Q50 10 86 30" stroke="#26092f" stroke-width="2" fill="none" opacity=".5"/></g>
<circle cx="50" cy="54" r="40" fill="none" stroke="#fff" stroke-width="3"/>
<path d="M30 26l3 8 8 3-8 3-3 8-3-8-8-3 8-3z" fill="#fff"/>
</svg>